HIERARCHY
ROOT Hips
{
  OFFSET 3.13124 94.3669 -3.18751
  CHANNELS  6 Xposition Yposition Zposition Zrotation Xrotation Yrotation
  JOINT LeftUpLeg
  {
    OFFSET 8.64259 1.95398 -2.38835
    CHANNELS 3 Zrotation Xrotation Yrotation
    JOINT LeftLeg
    {
      OFFSET 43.7702 0 0
      CHANNELS 3 Zrotation Xrotation Yrotation
      JOINT LeftFoot
      {
        OFFSET 40.6238 0 0
        CHANNELS 3 Zrotation Xrotation Yrotation
        JOINT LeftToeBase
        {
          OFFSET 12.7242 0 0
          CHANNELS 3 Zrotation Xrotation Yrotation
          End Site
          {
            OFFSET 0 0 0
          }
        }
      }
    }
  }
  JOINT RightUpLeg
  {
    OFFSET -8.2249 1.95398 -2.59336
    CHANNELS 3 Zrotation Xrotation Yrotation
    JOINT RightLeg
    {
      OFFSET 43.5653 0 0
      CHANNELS 3 Zrotation Xrotation Yrotation
      JOINT RightFoot
      {
        OFFSET 40.6238 0 0
        CHANNELS 3 Zrotation Xrotation Yrotation
        JOINT RightToeBase
        {
          OFFSET 12.7242 0 0
          CHANNELS 3 Zrotation Xrotation Yrotation
          End Site
          {
            OFFSET 0 0 0
          }
        }
      }
    }
  }
  JOINT Spine
  {
    OFFSET 0.165834 0.87714 6.61349
    CHANNELS 3 Zrotation Xrotation Yrotation
    JOINT Spine1
    {
      OFFSET 7.38962 1.71661e-005 0
      CHANNELS 3 Zrotation Xrotation Yrotation
      JOINT Spine2
      {
        OFFSET 11.9445 1.14441e-005 0
        CHANNELS 3 Zrotation Xrotation Yrotation
        JOINT Spine3
        {
          OFFSET 14.7254 4.19617e-005 0
          CHANNELS 3 Zrotation Xrotation Yrotation
          JOINT Spine4
          {
            OFFSET 10.9679 0 0
            CHANNELS 3 Zrotation Xrotation Yrotation
            JOINT RightShoulder
            {
              OFFSET 2.46616 -1.6653 3.69651
              CHANNELS 3 Zrotation Xrotation Yrotation
              JOINT RightArm
              {
                OFFSET 13.0012 0 0
                CHANNELS 3 Zrotation Xrotation Yrotation
                JOINT RightForeArm
                {
                  OFFSET 28.7848 1.52588e-005 0
                  CHANNELS 3 Zrotation Xrotation Yrotation
                  JOINT RightHand
                  {
                    OFFSET 26.5688 1.52588e-005 0
                    CHANNELS 3 Zrotation Xrotation Yrotation
                    End Site
                    {
                      OFFSET 0 0 0
                    }
                  }
                }
              }
            }
            JOINT LeftShoulder
            {
              OFFSET 2.38034 -1.29275 -3.75231
              CHANNELS 3 Zrotation Xrotation Yrotation
              JOINT LeftArm
              {
                OFFSET 16.3182 6.10352e-005 0
                CHANNELS 3 Zrotation Xrotation Yrotation
                JOINT LeftForeArm
                {
                  OFFSET 27.0901 0 0
                  CHANNELS 3 Zrotation Xrotation Yrotation
                  JOINT LeftHand
                  {
                    OFFSET 24.5451 1.52588e-005 0
                    CHANNELS 3 Zrotation Xrotation Yrotation
                    End Site
                    {
                      OFFSET 0 0 0
                    }
                  }
                }
              }
            }
            JOINT Neck
            {
              OFFSET 5.0226 -0.0266342 0
              CHANNELS 3 Zrotation Xrotation Yrotation
              JOINT Head
              {
                OFFSET 6.69363 2.86102e-005 0
                CHANNELS 3 Zrotation Xrotation Yrotation
                End Site
                {
                  OFFSET 0 0 0
                }
              }
            }
          }
        }
      }
    }
  }
}
MOTION
Frames:	9
Frame Time:	0.0333333
34.1155 92.4567 45.1371 27.7864 -62.9109 19.6281 -173.269 33.3112 92.6968 -33.947 9.84433 0.343744 50.917 -25.548 -19.1277 28.7808 5.06405e-006 6.17695e-006 -178.084 46.083 80.9268 -44.6112 -7.60098 -0.756343 69.7925 -14.723 -7.51203 28.7808 1.47789e-005 3.03534e-005 -2.47713 9.55892 -90.2673 7.74225 -4.96679 -0.447735 -3.91919 -4.98167 -0.228176 -26.5217 -4.60212 -1.92283 -6.50905 -4.60212 -1.92286 98.818 -40.452 -87.9166 49.9199 5.64135 -17.7178 5.38678 0.246029 -8.76291 -5.37983 -0.32002 -0.0162387 -88.784 -27.3441 74.7675 -33.4574 17.736 -48.8206 20.7912 60.043 -33.9577 5.4985 -1.63275 -26.5151 -0.770893 19.8679 -1.84466 -15.6634 15.5412 37.6518 
34.9254 92.3794 44.9491 24.7607 -63.3022 16.7406 -173.83 34.8282 93.5365 -32.4173 9.77883 0.936278 51.8552 -26.4085 -19.3911 28.7808 5.06405e-006 6.17695e-006 -177.803 47.1319 80.3968 -45.612 -9.50035 -0.878432 69.1231 -13.7491 -7.09254 28.7808 1.47789e-005 3.03534e-005 -2.21853 9.59343 -90.5943 7.69356 -4.79515 -0.496925 -3.96857 -4.81235 -0.284922 -26.5658 -4.4237 -1.91781 -6.55317 -4.42369 -1.91781 98.9853 -39.1453 -87.7288 49.4081 4.7812 -16.0138 6.46142 0.115794 -10.2465 -5.37983 -0.32002 -0.0162387 -88.6311 -27.4196 75.0965 -32.2568 19.5115 -51.3153 20.7025 61.596 -33.5976 3.16459 -1.22341 -27.5723 -0.705391 20.1165 -1.3641 -15.0888 15.8782 37.9182 
35.6911 92.1602 44.5948 21.6573 -63.8981 13.6706 -174.205 36.7031 94.4689 -31.7563 10.5955 1.5837 52.9244 -24.1377 -17.3769 28.7808 5.06405e-006 6.17695e-006 -178.355 45.2119 80.1675 -41.1864 -11.6445 -0.929299 72.6446 -13.4885 -6.51312 28.7808 1.47789e-005 3.03534e-005 -1.98945 9.72354 -90.7529 7.44187 -4.55384 -0.51359 -4.22111 -4.57202 -0.312237 -26.8119 -4.18861 -1.86078 -6.79921 -4.18861 -1.86077 99.4247 -37.6784 -87.0496 49.6009 3.83976 -14.782 7.48646 -0.104653 -11.8139 -5.37983 -0.32002 -0.0162387 -88.0567 -27.2676 76.191 -25.263 21.6362 -47.5851 19.1655 44.2903 -44.8746 -4.78105 0.487954 -31.0539 0.78869 20.717 -1.41867 -15.0403 16.4644 38.2113 
36.4074 91.3597 44.1166 19.3171 -64.493 10.817 -174.533 39.0323 95.1214 -32.0556 12.5057 2.67015 53.9513 -22.8365 -16.1369 28.7808 5.06405e-006 6.17695e-006 -176.378 50.3038 78.4872 -50.3496 -11.6361 -1.07346 68.9529 -12.8366 -6.6352 28.7808 1.47789e-005 3.03534e-005 -2.02423 9.90301 -90.4559 7.06859 -4.33412 -0.436422 -4.59514 -4.34914 -0.244903 -27.1811 -4.00228 -1.72085 -7.16849 -4.00227 -1.72085 99.6429 -36.1348 -86.7592 49.3456 2.44128 -13.0557 9.83062 -0.659348 -13.9983 -5.37983 -0.32002 -0.0162387 -87.0836 -27.085 78.0829 -20.2666 23.2998 -48.8759 14.1187 37.5501 -45.2145 -7.46133 1.81865 -45.1468 3.43798 21.4342 -2.47352 -15.7484 17.032 38.9072 
37.1469 90.2507 43.5217 18.0431 -64.605 8.7662 -175.132 42.0372 95.6768 -32.4859 13.4737 3.42962 54.8203 -20.7126 -14.4161 28.7808 5.06405e-006 6.17695e-006 -174.758 52.7006 76.2382 -54.0556 -11.8133 -1.14934 70.0977 -12.5457 -6.35324 28.7808 1.47789e-005 3.03534e-005 -2.05694 10.054 -90.2619 6.75862 -4.20176 -0.377485 -4.90554 -4.2143 -0.191871 -27.4889 -3.89377 -1.62471 -7.47624 -3.89377 -1.6247 100.071 -34.2325 -86.0761 49.3482 1.02661 -11.0113 10.5982 -0.999162 -16.526 -5.37983 -0.32002 -0.0162387 -85.8427 -28.0372 80.8277 -12.8611 24.3989 -51.9288 12.5421 32.102 -49.1751 -17.5249 5.75235 -47.6824 5.75351 22.1223 -3.17549 -15.9509 17.6962 39.6945 
37.8939 88.8588 42.8984 17.8836 -64.5882 7.89885 -175.794 45.6892 96.2744 -33.4128 12.972 3.67793 56.2974 -14.2149 -9.70825 28.7808 5.06405e-006 6.17695e-006 -172.774 55.0284 73.7356 -57.9958 -11.0069 -1.17962 71.996 -12.5447 -6.14212 28.7808 1.47789e-005 3.03534e-005 -2.15065 10.2857 -90.0338 6.28278 -4.09565 -0.361572 -5.38172 -4.10758 -0.180656 -27.9627 -3.79737 -1.57749 -7.95005 -3.79737 -1.5775 101.049 -32.5708 -84.2577 48.677 -1.18895 -9.33414 12.1194 -1.57588 -19.427 -5.37983 -0.32002 -0.0162387 -85.1947 -27.6801 82.0373 -3.97077 24.6679 -53.7774 15.6851 20.6469 -61.6984 -44.0829 6.70604 -21.6989 11.3221 22.8804 -5.39249 -18.2458 18.1335 40.4576 
38.7849 87.0345 42.1641 17.383 -63.4619 6.94506 -177.064 49.6151 97.6646 -32.0316 14.0929 4.42045 54.8758 -16.7768 -11.7306 28.7808 5.06405e-006 6.17695e-006 -169.88 58.6522 70.5956 -62.3952 -9.57697 -1.18647 74.4397 -12.2416 -5.73265 28.7808 1.47789e-005 3.03534e-005 -2.0585 10.4385 -90.0914 5.9856 -4.05518 -0.266482 -5.67903 -4.06297 -0.0874521 -28.2598 -3.78734 -1.47463 -8.24719 -3.78734 -1.47464 100.941 -30.9015 -84.5421 47.9776 -3.27153 -7.29998 13.6371 -2.28881 -22.3945 -5.37983 -0.32002 -0.0162387 -86.16 -28.1235 80.22 4.77124 22.9588 -52.4285 12.105 15.4812 -64.0129 -42.7783 7.97594 -26.0612 16.4339 23.3029 -7.79776 -19.827 18.6534 41.3828 
39.7034 84.8936 41.5044 16.8096 -62.3864 6.12103 -178.711 53.7904 99.6325 -31.448 16.5744 5.55422 53.3884 -19.6847 -14.1244 28.7808 5.06405e-006 6.17695e-006 -165.956 62.4277 66.6434 -67.4111 -8.02558 -1.20335 76.7825 -11.884 -5.33174 28.7808 1.47789e-005 3.03534e-005 -1.95814 10.5777 -90.1261 5.71143 -3.99556 -0.208555 -5.95335 -4.00086 -0.0322156 -28.5332 -3.7479 -1.40141 -8.52059 -3.7479 -1.40143 99.9057 -28.5916 -86.8152 47.9372 -4.86032 -4.43056 14.5097 -2.9145 -25.1601 -5.37983 -0.32002 -0.0162387 -88.4561 -30.1421 76.3017 13.3031 21.4504 -47.7089 11.8566 10.765 -66.9104 -43.04 8.71494 -27.8368 18.3731 23.4418 -8.68302 -18.5758 19.5052 41.8655 
40.6915 82.5175 40.799 16.8054 -60.6186 5.33808 179.567 59.5225 101.248 -33.0885 18.0666 5.85108 51.2543 -21.5123 -16.0828 28.7808 5.06405e-006 6.17695e-006 -158.775 66.2217 58.7868 -72.3352 -7.88882 -1.30608 79.86 -10.6593 -4.53352 28.7808 1.47789e-005 3.03534e-005 -2.12498 10.6851 -89.8654 5.48543 -3.89293 -0.159294 -6.17968 -3.89616 0.0124701 -28.7576 -3.66484 -1.32348 -8.74494 -3.66483 -1.32348 99.8119 -26.035 -87.2456 47.9274 -6.83294 -3.17252 15.845 -3.45442 -26.2704 -5.37983 -0.32002 -0.0162387 -88.2764 -29.7166 76.5204 19.5948 20.865 -44.4329 11.1982 4.91161 -71.8306 -44.623 6.36573 -21.0246 23.0607 23.5276 -9.74023 -19.0053 20.0904 41.3737 
